<?xml version="1.0" encoding="UTF-8" standalone="no"?>
<!-- Created with Inkscape (http://www.inkscape.org/) -->

<svg
   width="210mm"
   height="297mm"
   viewBox="0 0 210 297"
   version="1.1"
   id="svg74758"
   inkscape:version="1.1 (c68e22c387, 2021-05-23)"
   sodipodi:docname="motosvg.svg"
   xmlns:inkscape="http://www.inkscape.org/namespaces/inkscape"
   xmlns:sodipodi="http://sodipodi.sourceforge.net/DTD/sodipodi-0.dtd"
   xmlns="http://www.w3.org/2000/svg"
   xmlns:svg="http://www.w3.org/2000/svg">
  <sodipodi:namedview
     id="namedview74760"
     pagecolor="#ffffff"
     bordercolor="#666666"
     borderopacity="1.0"
     inkscape:pageshadow="2"
     inkscape:pageopacity="0.0"
     inkscape:pagecheckerboard="0"
     inkscape:document-units="mm"
     showgrid="false"
     inkscape:zoom="2.9647587"
     inkscape:cx="515.05035"
     inkscape:cy="387.72127"
     inkscape:window-width="1920"
     inkscape:window-height="1017"
     inkscape:window-x="1912"
     inkscape:window-y="760"
     inkscape:window-maximized="1"
     inkscape:current-layer="layer1" />
  <defs
     id="defs74755">
    <rect
       x="180.11584"
       y="236.7815"
       width="147.06087"
       height="69.820185"
       id="rect81630" />
    <rect
       x="103.03372"
       y="622.01841"
       width="269.0325"
       height="124.02208"
       id="rect75992" />
  </defs>
  <g
     inkscape:label="Capa 1"
     inkscape:groupmode="layer"
     id="layer1">
    <path
       style="fill:#333333;fill-opacity:1;stroke-width:0.842507"
       d="m 80.049672,149.91873 c -6.970339,-1.2771 -12.583562,-6.48603 -14.75085,-13.68839 -1.810119,-6.01551 1.190909,-14.72334 6.312014,-18.31504 7.979191,-5.59621 15.907002,-5.76698 24.244546,-0.52222 5.304638,3.33688 7.315188,7.44966 7.298408,14.92935 -0.009,4.79614 -0.38711,6.25611 -2.34912,9.11344 -3.245385,4.72623 -7.407684,7.46117 -12.820131,8.4237 -2.535359,0.45098 -4.654142,0.77764 -4.708456,0.72605 -0.05426,-0.0516 -1.506187,-0.3517 -3.226411,-0.66689 z M 89.9225,137.40549 c 2.256252,-2.6919 2.722556,-5.21603 1.482253,-8.02392 -1.651827,-3.73965 -3.205924,-4.80988 -6.984563,-4.80988 -6.14424,0 -9.81889,5.43664 -7.264739,10.74823 2.367132,4.92271 9.423073,6.07531 12.767049,2.08557 z m 89.217,12.50787 c -11.48745,-2.12551 -18.26889,-15.45303 -13.15924,-25.86157 3.88294,-7.90963 14.16225,-12.27782 22.59229,-9.60052 9.35207,2.97005 13.23398,7.5053 14.01538,16.37442 1.09533,12.43186 -10.11235,21.55523 -23.44843,19.08767 z m 10.39313,-12.90125 c 2.32382,-2.66755 2.52327,-6.41287 0.48973,-9.19937 -2.0605,-2.82358 -2.86121,-3.21437 -6.61511,-3.22858 -4.52086,-0.0189 -7.57308,2.84918 -7.57308,7.11172 0,7.59658 8.75274,10.99347 13.69846,5.31623 z M 49.68165,135.63924 c 0,-1.92965 3.076163,-12.90198 5.161446,-18.41032 2.271853,-6.00126 2.452508,-7.05689 1.341969,-7.84073 -1.858059,-1.31148 -1.782893,-9.754081 0.0927,-10.429071 0.756925,-0.27226 13.598378,-0.49525 28.536584,-0.49525 19.964681,0 27.436961,0.25919 28.204371,0.97905 1.4653,1.374121 1.31038,7.999011 -0.22415,9.589251 -1.09671,1.13641 -1.10774,2.02807 -0.0817,6.5912 0.65281,2.90231 1.9603,7.1126 2.90568,9.35625 l 1.71877,4.07933 21.41814,0.21843 21.41812,0.21842 v 3.24918 3.24922 H 134.1922 108.21074 l -0.43851,-5.12318 c -1.70128,-19.87388 -27.831455,-28.42729 -40.927862,-13.39722 -4.593295,5.27143 -6.518762,8.25144 -5.966404,13.62089 l -0.07366,4.89949 h -5.56158 c -3.058867,0 -5.561589,-0.1593 -5.561589,-0.35459 z m 95.56864,-11.27153 c -1.79248,-1.88934 -9.81697,-16.20417 -10.71795,-22.19541 l -1.06278,-3.226491 -14.86737,-2.22379 c -8.17712,-1.2231 -15.66339,-2.62326 -16.63619,-3.11152 -0.97282,-0.48824 -2.832527,-2.5899 -4.132681,-4.67038 -2.248103,-3.59733 -2.36665,-4.32596 -2.419843,-14.874555 -0.05239,-10.384194 0.126627,-11.62401 2.807203,-19.431607 3.988211,-11.616801 8.105571,-15.728392 15.750501,-15.728392 5.09989,0 7.78995,2.518756 8.71364,8.15868 l 0.73496,4.487261 -1.8509,-2.409084 c -3.57129,-4.648421 -5.62408,-6.157503 -8.37602,-6.157503 -3.44337,0 -6.96012,3.179487 -6.96012,6.29269 0,2.738288 5.45623,10.805547 10.27828,15.19679 l 3.43978,3.132454 -0.45062,6.773039 -0.45059,6.773067 2.50926,0.48939 c 1.38012,0.26919 6.4244,1.06529 11.20948,1.76914 9.32179,1.3712 11.6069,2.29669 13.22425,5.35581 2.19307,4.14809 6.61674,14.269391 9.49039,21.713771 2.63097,6.81594 2.88607,8.13119 2.04212,10.52928 -0.53046,1.50719 -1.80465,3.29226 -2.8315,3.96674 -2.82063,1.85265 -7.38701,1.558 -9.4433,-0.60938 z m 55.33751,-7.52575 c -6.61122,-8.12828 -22.50868,-10.35965 -31.45852,-2.37385 l -2.7899,1.97402 -0.99277,-3.48202 c -0.54601,-1.9151 -1.30017,-3.8491 -1.67589,-4.29786 -0.37569,-0.44873 -3.10723,-7.60797 -6.07013,-15.909421 -2.96286,-8.30148 -6.01981,-15.55249 -6.79325,-16.113404 -1.28302,-0.930483 -1.27368,-1.019825 0.10665,-1.019825 0.83204,0 2.47296,-0.971468 3.64634,-2.158798 1.46979,-1.48724 2.13354,-1.77492 2.13354,-0.924679 0,1.148937 2.81315,8.508486 4.28734,11.215836 0.65392,1.20107 4.10094,3.40936 7.57667,4.85399 2.83198,1.1771 7.20031,6.48803 9.45041,11.489691 1.99506,4.43482 2.06936,4.49325 6.35441,4.99946 6.61652,0.78156 13.30454,4.02309 16.98071,8.23021 3.06547,3.50817 4.12887,6.35118 2.37567,6.35118 -0.45418,0 -1.8632,-1.27552 -3.13119,-2.83453 z M 16.620868,103.76689 c -1.004022,-1.13449 0.366933,-1.24117 13.362704,-1.03994 18.952568,0.29357 19.902215,1.77365 1.334543,2.08004 -11.401822,0.18819 -13.757776,0.0216 -14.697247,-1.0401 z M 41.49831,93.692839 c 1.034749,0.58225 4.745805,-33.350542 5.407874,-34.355139 0.844374,-1.281207 40.379618,-10.133989 41.752221,-8.846815 0.755679,0.708656 1.044026,6.548376 1.044026,21.145831 0,11.091693 -0.237738,20.747513 -0.528089,21.457303 -0.463415,1.13242 -3.38818,1.29052 -23.874137,1.29052 -12.840338,0 -24.190879,-0.91055 -23.801913,-0.6917 z m 125.11367,-13.50436 c -2.45961,-2.30651 -2.95738,-3.372045 -2.954,-6.323009 0.006,-4.74678 3.84289,-8.852161 8.27464,-8.852161 3.89715,0 4.77155,1.64462 4.77155,8.97455 0,7.15381 -0.90639,8.97455 -4.46765,8.97455 -1.87242,0 -3.54738,-0.82605 -5.62454,-2.77393 z m -25.17925,-2.991434 c 0,1.637088 -0.2356,-1.511026 3.93883,-0.985967 2.99949,0.377237 3.48488,0.627792 2.15838,1.11408 -2.52441,0.925408 -6.09721,-1.33337 -6.09721,-0.128248 z m -7.67795,-5.220378 c -3.28557,-1.087216 -7.59213,-2.966218 -9.5702,-4.175606 -8.84303,-5.406459 -17.31104,-16.601655 -15.45185,-20.428158 0.50648,-1.042451 1.87651,-2.120297 3.04451,-2.395206 2.70111,-0.63573 6.06956,0.983267 5.40816,2.59943 -0.27115,0.661973 -0.14522,1.002383 0.27868,0.756445 0.42438,-0.245966 1.98422,1.325027 3.46636,3.491007 2.78948,4.076437 9.26765,8.7845 15.31766,11.132206 1.91399,0.742729 6.15415,1.565025 9.42254,1.827298 3.3419,0.268105 6.48305,0.983781 7.17765,1.635144 1.7147,1.608008 1.54309,4.606761 -0.35593,6.218387 -2.4424,2.072751 -11.43544,1.755534 -18.73792,-0.660947 z M 4.9576399,69.460827 c 0,1.071826 -1.3874711,-1.366147 -1.388158,-1.446281 -6.779e-4,-0.08019 7.5358481,0.0378 16.7478371,0.262165 21.66184,0.527597 22.538262,1.955816 1.388149,2.262125 C 8.5951993,70.728642 4.9576399,67.797497 4.9576399,69.460746 Z M 22.711126,39.313528 c -0.987202,-1.115484 1.760453,-1.224562 25.984118,-1.031624 17.325285,0.137968 27.088086,0.509778 27.08811,1.031597 0,0.520901 -9.394735,0.893872 -25.984148,1.03165 -22.443905,0.186297 -26.134546,0.0459 -27.08808,-1.031623 z M 121.2789,37.054183 c -5.42946,-1.954655 -4.80211,-2.635879 2.42749,-2.635879 8.48472,0 8.90067,-0.405721 8.17627,-7.974867 l -0.52898,-5.527254 3.07192,-1.203665 c 4.34886,-1.703965 6.31317,-1.524796 6.92952,0.632058 1.66393,5.822414 -1.05697,12.717247 -6.11079,15.485153 -3.50038,1.917099 -10.36874,2.519296 -13.96543,1.224454 z m -0.25579,-4.353857 C 112.55885,31.368037 96.149929,32.940352 95.32462,26.074057 94.028261,15.288436 115.56284,2.0770447 126.59866,3.3027407 c 6.51575,0.72364 13.23335,5.636359 14.83079,10.8459653 0.47008,1.53295 0.10695,1.827353 -2.82873,2.292446 -1.85244,0.293484 -4.66177,1.271379 -6.24294,2.173081 -2.86624,1.634576 -2.87335,1.654583 -2.36992,6.710183 0.27778,2.788913 0.20216,5.530036 -0.16781,6.091383 -0.74527,1.130819 -5.42885,1.814716 -8.79703,1.284527 z m -64.381439,-17.0471 c -1.004034,-1.134492 0.366936,-1.241194 13.362706,-1.039967 18.952529,0.293458 19.902225,1.773624 1.33454,2.080041 -11.401822,0.188187 -13.757794,0.0216 -14.697246,-1.040074 z"
       id="path6326"
       sodipodi:nodetypes="sssscsscssssssssssssscsscsssssscscccccccssscsccsscssssssscsssscccssssscscscssssssssssssscccsscssssssssscssssssssscsssccsssssccsssssssssssssscscssscssssccscssc" />
    <text
       xml:space="preserve"
       transform="scale(0.26458333)"
       id="text75990"
       style="fill:black;fill-opacity:1;line-height:1.25;stroke:none;font-family:sans-serif;font-style:normal;font-weight:normal;font-size:40px;white-space:pre;shape-inside:url(#rect75992)" />
    <text
       xml:space="preserve"
       transform="matrix(0.26458333,0,0,0.26458333,0.89242789,5.0868389)"
       id="text81628"
       style="font-style:normal;font-weight:normal;font-size:40px;line-height:1.25;font-family:sans-serif;white-space:pre;shape-inside:url(#rect81630);fill:#000000;fill-opacity:1;stroke:none"><tspan
         x="180.11523"
         y="273.27446"
         id="tspan99735"><tspan
           style="font-style:italic;font-weight:bold;font-size:37.3333px;-inkscape-font-specification:'sans-serif Bold Italic';fill:#ffffff"
           id="tspan99733">RAPPY</tspan></tspan></text>
    <text
       xml:space="preserve"
       style="font-style:normal;font-weight:normal;font-size:6.35px;line-height:1.25;font-family:sans-serif;fill:#000000;fill-opacity:1;stroke:none;stroke-width:0.264583"
       x="118.83336"
       y="134.92833"
       id="text88578"><tspan
         sodipodi:role="line"
         id="tspan88576"
         style="font-style:normal;font-variant:normal;font-weight:bold;font-stretch:normal;font-size:6.35px;font-family:sans-serif;-inkscape-font-specification:'sans-serif Bold';fill:#ffffff;stroke-width:0.264583"
         x="118.83336"
         y="134.92833">Team ARV</tspan></text>
  </g>
</svg>
