<?xml version="1.0" encoding="UTF-8" standalone="no"?>
<!-- Created with Inkscape (http://www.inkscape.org/) -->

<svg
   version="1.1"
   id="svg2"
   width="386.13333"
   height="546.1333"
   viewBox="0 0 386.13333 546.1333"
   sodipodi:docname="perfilsvg.svg"
   inkscape:version="1.1 (c68e22c387, 2021-05-23)"
   xmlns:inkscape="http://www.inkscape.org/namespaces/inkscape"
   xmlns:sodipodi="http://sodipodi.sourceforge.net/DTD/sodipodi-0.dtd"
   xmlns="http://www.w3.org/2000/svg"
   xmlns:svg="http://www.w3.org/2000/svg">
  <defs
     id="defs6" />
  <sodipodi:namedview
     id="namedview4"
     pagecolor="#ffffff"
     bordercolor="#666666"
     borderopacity="1.0"
     inkscape:pageshadow="2"
     inkscape:pageopacity="0.0"
     inkscape:pagecheckerboard="0"
     showgrid="false"
     inkscape:zoom="0.76171885"
     inkscape:cx="118.15383"
     inkscape:cy="226.46151"
     inkscape:window-width="1920"
     inkscape:window-height="1017"
     inkscape:window-x="1912"
     inkscape:window-y="760"
     inkscape:window-maximized="1"
     inkscape:current-layer="g12" />
  <g
     inkscape:groupmode="layer"
     inkscape:label="Image"
     id="g8">
    <g
       id="g12"
       transform="translate(-28.882048,-64.328201)">
      <path
         style="fill:#333333;fill-opacity:1;stroke-width:0.55399"
         d="m 205.21544,347.03969 c -21.43184,-0.82957 -42.67856,-5.77199 -56.99047,-13.25715 -10.42995,-5.45489 -19.78517,-14.13496 -23.05305,-21.38936 -1.94353,-4.31447 -1.93504,-4.56325 0.61943,-18.14288 3.198,-17.00068 7.47204,-29.99004 12.30183,-37.38689 1.92176,-2.94318 3.73166,-4.70183 8.81248,-8.56289 13.95166,-10.60231 39.15547,-27.73501 40.80072,-27.73497 0.44895,1e-5 2.9926,1.64055 5.65256,3.64565 4.34102,3.27227 7.14875,4.87993 14.33566,8.20838 2.51937,1.16678 2.87616,1.8947 7.05203,14.38721 1.36402,4.08059 2.69875,7.43503 2.96606,7.45434 0.26731,0.0192 1.05257,-1.62539 1.74503,-3.65486 3.87793,-11.36564 5.58639,-15.95195 6.25763,-16.79836 0.41285,-0.52059 2.22905,-1.52464 4.03602,-2.23123 4.20956,-1.64608 8.68163,-4.3488 13.34269,-8.06369 2.03399,-1.62111 4.09451,-2.94746 4.57894,-2.94746 2.78627,0 44.37303,29.36578 48.23544,34.06064 4.57054,5.55558 8.93644,16.50234 12.05627,30.22903 1.77752,7.82079 3.76659,19.84791 3.76659,22.77514 0,2.69606 -2.46086,7.52124 -5.97085,11.70746 -11.89792,14.19023 -32.78031,23.16151 -61.86015,26.57575 -7.19523,0.84479 -29.31664,1.48875 -38.68486,1.12614 z m 58.46899,-40.03773 c 0.99741,-2.49663 8.83208,-27.40142 8.83208,-28.07534 0,-0.65489 -2.5308,-0.54679 -2.91032,0.12432 -0.86218,1.52457 -9.24423,29.13497 -8.98438,29.59445 0.70846,1.25275 2.23227,0.43505 3.06262,-1.64343 z m -82.31582,-3.06994 c 0.43719,-0.0249 1.45068,0.13231 2.2522,0.34923 l 1.4573,0.3944 -0.003,-6.87238 c -0.004,-8.80478 -0.54411,-11.04089 -2.93124,-12.13091 -2.10727,-0.96223 -6.23106,-1.08164 -7.69924,-0.22293 -0.60658,0.3549 -1.02479,1.20916 -1.02479,2.09371 0,1.4751 0.0376,1.48906 2.94385,1.09224 2.2868,-0.31225 3.2368,-0.1922 4.25632,0.53785 0.72186,0.5169 1.19145,1.15382 1.04352,1.41539 -0.14791,0.26156 -1.64594,0.77745 -3.32894,1.1464 -3.90837,0.85683 -5.38431,2.11861 -6.00402,5.13286 -0.56163,2.73174 -0.0762,4.66164 1.64594,6.5437 0.96061,1.04982 1.53661,1.18396 3.86316,0.89969 1.50382,-0.18374 3.09192,-0.3544 3.52911,-0.37925 z m -5.47594,-3.25232 c -0.19431,-0.21235 -0.35329,-1.11849 -0.35329,-2.01363 0,-1.89997 1.41025,-3.07493 4.37192,-3.64247 l 1.98724,-0.38082 v 2.30996 c 0,1.73052 -0.29544,2.53611 -1.17778,3.21151 -1.1888,0.90998 -4.17532,1.22883 -4.82809,0.51545 z m 16.60446,-3.3074 c 0,-7.66031 0.12198,-8.04375 2.79197,-8.7761 2.12643,-0.58326 3.03666,0.52702 3.04043,3.70864 0.001,1.47399 0.15633,4.83005 0.34351,7.45789 0.33304,4.67543 0.37014,4.77789 1.73022,4.77789 h 1.38989 l -0.17766,-8.25272 -0.17766,-8.25273 -1.61958,-1.64681 c -1.41986,-1.44372 -1.88945,-1.60095 -3.80794,-1.27501 -1.20359,0.20449 -3.32108,0.35096 -4.70552,0.32549 l -2.51717,-0.0463 v 9.57405 9.57405 h 1.85476 1.85475 z m 21.99208,6.53816 c 0.29146,-0.0519 1.18572,0.0969 1.98724,0.33068 l 1.4573,0.42505 v -13.0934 -13.0934 h -1.58978 c -1.58193,0 -1.5898,0.0164 -1.59136,3.33004 l -0.001,3.33005 h -2.85772 c -2.10774,0 -3.17002,0.30397 -4.04774,1.15828 -3.81185,3.7101 -4.21303,12.68656 -0.74955,16.77076 1.33156,1.57019 2.53451,1.70718 7.39317,0.84194 z m -5.65014,-4.14773 c -0.90099,-1.79769 -0.87035,-7.45202 0.0506,-9.33609 0.84281,-1.72423 2.52752,-2.41599 4.53968,-1.86408 1.29201,0.35438 1.32483,0.49424 1.32483,5.64555 0,5.91792 -0.46195,6.80579 -3.55839,6.83927 -1.23056,0.0133 -1.88497,-0.34342 -2.35671,-1.28465 z m 17.04363,-1.84936 c 0,-6.1919 0.0774,-6.68648 1.17777,-7.5288 0.64777,-0.49585 2.0937,-0.90155 3.21315,-0.90155 1.97711,0 2.03063,-0.0539 1.86933,-1.8822 -0.14546,-1.64871 -0.37667,-1.90447 -1.86384,-2.06169 -0.93379,-0.0987 -2.21135,0.12089 -2.83903,0.48802 -0.82533,0.48271 -1.30152,0.49232 -1.72026,0.0347 -0.31846,-0.34803 -1.24673,-0.63279 -2.06283,-0.63279 h -1.4838 v 9.55579 9.55579 h 1.85475 1.85476 z m 19.6258,5.45626 c 0.47419,-0.81953 0.72446,-4.04125 0.31393,-4.04125 -0.10869,0 -1.27124,0.51901 -2.58345,1.15337 -3.29105,1.59096 -5.42592,0.79402 -6.79143,-2.53526 l -0.97719,-2.38252 5.58699,-0.1649 5.587,-0.1649 -0.37318,-3.02036 c -0.59521,-4.81746 -2.00839,-6.68649 -5.43552,-7.18884 -4.77961,-0.70062 -8.07964,3.37368 -8.16669,10.0828 -0.0498,3.8376 0.9043,6.35342 3.13933,8.27807 1.27086,1.09439 1.98716,1.23558 5.33641,1.05191 2.66994,-0.14641 4.02196,-0.47734 4.3638,-1.06812 z m -9.55714,-11.59638 c 0,-1.15106 2.60618,-3.44851 3.91192,-3.44851 1.3668,0 3.72954,2.61296 3.20364,3.54291 -0.41563,0.73493 -7.11556,0.64605 -7.11556,-0.0944 z m 22.82774,11.0745 c 1.21471,-1.3275 1.54903,-2.21189 1.54903,-4.09778 0,-2.91031 -1.33802,-4.44078 -5.07762,-5.80795 -3.11455,-1.13865 -4.03397,-2.4366 -2.73308,-3.85829 0.93073,-1.01715 1.53489,-0.94283 6.35339,0.78163 0.74435,0.26638 0.92738,-0.0104 0.92738,-1.40216 0,-0.95373 -0.34835,-2.04999 -0.77411,-2.43616 -1.18232,-1.07235 -4.70816,-1.39209 -6.84645,-0.62086 -2.44641,0.88236 -3.50797,2.56264 -3.50797,5.5526 0,2.94763 1.27374,4.35514 5.20461,5.7512 2.99653,1.06422 3.80293,2.09314 2.73874,3.49448 -0.83523,1.09983 -3.57382,1.10361 -5.97266,0.008 -1.6678,-0.76155 -1.90218,-0.75647 -2.18444,0.0474 -0.4987,1.42028 -0.38786,1.88566 0.74368,3.12228 0.845,0.92346 1.76643,1.15828 4.54516,1.15828 3.14562,0 3.63629,-0.165 5.03434,-1.69286 z m -91.24705,-2.45107 c -0.25033,-0.52727 -2.77138,-2.32327 -5.60233,-3.99111 l -5.14719,-3.03244 5.10638,-2.80151 c 2.80851,-1.54083 5.32834,-3.23496 5.59962,-3.76472 0.50137,-0.97909 0.25469,-3.12302 -0.35735,-3.10584 -0.1846,0.005 -3.55496,1.91186 -7.48969,4.23707 -9.60302,5.67487 -9.60442,5.6157 0.26496,11.19362 6.37099,3.60071 7.46576,4.05393 7.74989,3.20832 0.18198,-0.54159 0.12605,-1.41611 -0.12429,-1.94339 z m 117.01834,-1.41055 c 3.62115,-2.0994 6.72529,-4.21972 6.89809,-4.71183 0.17279,-0.49211 0.072,-1.31539 -0.22386,-1.82952 -0.49366,-0.85769 -13.64541,-8.71286 -14.63473,-8.74092 -0.23707,-0.007 -0.3563,0.83353 -0.26497,1.86723 0.15395,1.74237 0.54238,2.09085 5.32577,4.77788 2.83784,1.59415 5.16236,3.02876 5.1656,3.18802 0.003,0.15927 -2.31863,1.59263 -5.15971,3.18526 -4.45538,2.49756 -5.18865,3.11467 -5.33328,4.48833 -0.24948,2.36958 0.78594,2.08962 8.22709,-2.22445 z m -70.69789,-72.1092 c -14.07096,-2.56467 -30.79781,-18.39283 -38.80453,-36.71968 -4.4991,-10.29816 -6.79206,-20.73772 -7.50421,-34.16567 -0.93429,-17.61635 0.52032,-37.94658 3.52967,-49.33224 3.95468,-14.962231 12.10971,-25.436453 23.42984,-30.092999 7.80587,-3.210956 18.38913,-4.501004 29.81017,-3.633713 13.3747,1.01565 21.76255,4.609641 28.89483,12.380736 8.94694,9.748308 12.90016,21.567186 14.59554,43.636046 0.90128,11.73202 0.34406,32.30332 -1.08964,40.22653 -2.94799,16.29183 -9.5718,30.51919 -19.08206,40.98653 -11.12873,12.24868 -23.82196,18.52941 -33.77961,16.71446 z m 8.47402,-9.48922 c 11.72908,-3.33872 24.92951,-16.47316 31.43812,-31.28093 5.40018,-12.28594 7.08813,-21.57272 7.09129,-39.01458 l 0.002,-11.79507 -1.4573,0.34822 c -19.29852,4.61129 -34.74564,3.49884 -45.08532,-3.24691 -3.4615,-2.25834 -8.21303,-7.21322 -10.55851,-11.01039 -1.52729,-2.47258 -1.90139,-2.74989 -3.69737,-2.74086 -8.93438,0.045 -19.33697,6.50568 -23.76225,14.75799 -1.52766,2.84877 -1.55579,3.0564 -1.73652,12.81463 -0.27999,15.11779 1.77023,27.32357 6.49131,38.64529 5.13227,12.30781 15.22377,24.04165 25.51325,29.66542 6.65204,3.63571 10.54622,4.34165 15.76118,2.85719 z m -32.71032,-44.0413 c -3.48401,-1.04477 -5.09054,-2.4091 -6.53358,-5.5486 -1.48982,-3.24128 -3.34987,-12.65264 -3.67094,-18.57404 -0.24106,-4.44557 -0.23938,-4.45237 1.31699,-5.33193 2.41325,-1.36382 7.67154,-2.08094 15.213,-2.07472 7.67736,0.006 12.31712,0.87184 16.69279,3.11392 3.7921,1.94306 5.92898,1.88985 10.86593,-0.27057 5.24398,-2.29478 8.53551,-2.85033 16.91197,-2.85443 7.84585,-0.004 13.0561,0.81617 14.75975,2.32295 1.00188,0.88612 1.17868,1.60328 1.16267,4.71639 -0.0103,2.01926 -0.45297,5.49566 -0.98356,7.72533 -0.53058,2.22969 -1.30242,5.61765 -1.71519,7.52881 -1.23292,5.70846 -3.77066,8.38221 -9.106,9.59402 -3.67783,0.83533 -10.59424,0.39852 -13.90918,-0.87846 -4.47409,-1.72351 -7.83833,-6.5183 -9.78972,-13.95254 -1.11629,-4.25276 -1.64399,-5.00402 -3.35927,-4.78245 -1.19008,0.15374 -1.53686,0.78957 -2.96826,5.44229 -0.89141,2.89752 -2.28462,6.36456 -3.09603,7.70454 -1.80635,2.98305 -5.41893,5.57205 -8.92,6.39261 -3.5104,0.82276 -9.65146,0.69245 -12.87137,-0.27312 z m 12.79448,-4.61709 c 5.01187,-1.62658 8.3663,-7.54517 8.36809,-14.76473 l 0.001,-3.7644 -2.64965,-1.44202 c -2.49626,-1.35854 -3.1505,-1.44236 -11.30154,-1.44784 l -8.65203,-0.006 -1.54925,1.89134 c -1.45562,1.77705 -1.54925,2.18939 -1.54925,6.82348 0,7.20057 1.43395,10.42005 5.56426,12.49282 2.63779,1.32375 8.05088,1.42365 11.76831,0.21718 z m 43.78258,-0.80345 c 2.94079,-1.98627 4.30941,-5.6743 4.32134,-11.64472 0.016,-8.00498 -1.42217,-9.26929 -10.53536,-9.26185 -6.44128,0.005 -11.67414,0.85552 -13.83157,2.24741 -1.52984,0.98698 -1.58672,1.17128 -1.50813,4.88674 0.1454,6.87357 3.51462,12.80639 8.3972,14.78655 0.89788,0.36414 3.69966,0.55881 6.43751,0.44728 3.8447,-0.15663 5.23491,-0.45901 6.71901,-1.46141 z"
         id="path14" />
      <path
         style="fill:#666666;stroke-width:0.340916"
         d="m 197.95029,346.42856 c -16.19901,-1.40718 -32.47889,-5.2025 -44.2706,-10.32078 -9.30435,-4.03861 -17.57067,-9.87726 -23.27378,-16.43867 -4.31608,-4.96564 -6.32022,-9.00901 -6.31736,-12.74532 0.004,-4.7149 3.9311,-23.56785 6.90214,-33.13205 2.99922,-9.65492 6.3726,-16.32704 10.29867,-20.36946 4.26647,-4.39291 30.06455,-22.87069 42.69309,-30.57876 4.23672,-2.58596 3.13189,-2.79518 9.6531,1.82798 4.05707,2.87622 6.51472,4.29268 13.35907,7.69947 2.81186,1.3996 3.42821,2.43848 6.11407,10.30546 2.59769,7.60874 4.24656,11.85759 4.60161,11.85759 0.43762,0 1.17402,-1.769 3.54565,-8.51749 4.57328,-13.01328 4.10394,-12.23881 8.65317,-14.27917 4.44212,-1.99232 7.66112,-3.8924 12.06609,-7.12221 6.02258,-4.4159 5.29766,-4.17266 8.00138,-2.68466 8.86682,4.87989 39.55113,26.77773 44.89775,32.04122 4.12247,4.0584 8.33493,13.483 11.70491,26.18761 1.62257,6.11697 4.1223,19.14513 4.71151,24.55549 0.35356,3.24653 0.33295,3.58193 -0.33947,5.52474 -2.82653,8.16669 -12.61043,17.62981 -24.57489,23.7692 -10.98582,5.63721 -27.20855,10.07385 -42.93369,11.74164 -9.54511,1.01234 -36.9437,1.42078 -45.49242,0.67817 z m 65.02357,-37.85972 c 0.78574,-0.91405 1.61559,-3.3371 6.58972,-19.24099 1.77006,-5.65943 3.13868,-10.43064 3.04138,-10.60268 -0.0973,-0.17205 -0.75186,-0.31282 -1.45458,-0.31282 -0.96599,0 -1.39427,0.19562 -1.7556,0.80189 -0.50581,0.84868 -6.6478,20.57722 -8.16877,26.23868 -0.73653,2.74156 -0.8179,3.39548 -0.45385,3.64756 0.752,0.52071 1.43985,0.35462 2.2017,-0.53164 z m -77.70981,-10.64398 c -0.12141,-3.77331 -0.3676,-7.67868 -0.54709,-8.67861 -0.57909,-3.22597 -2.51052,-4.4131 -7.18613,-4.41684 -2.03623,-10e-4 -2.64123,0.13372 -3.36008,0.75167 -0.71244,0.61245 -0.85816,0.99644 -0.77773,2.04926 l 0.099,1.2956 3.09805,-0.12407 c 2.80589,-0.11238 3.18482,-0.0492 4.01812,0.66955 0.50603,0.43649 0.79953,0.92141 0.65222,1.0776 -0.14731,0.15619 -1.50387,0.6181 -3.01456,1.02645 -1.51068,0.40836 -3.19831,1.02538 -3.75027,1.37117 -2.40591,1.50727 -3.28364,6.51041 -1.61389,9.19939 1.43027,2.30334 1.51529,2.336 5.66505,2.17705 2.06265,-0.079 4.19052,-0.0263 4.7286,0.11718 2.38512,0.63589 2.23467,1.12877 1.98873,-6.5154 z m 7.31962,1.06919 c 0.0153,-6.23465 0.27782,-8.57982 1.05563,-9.42986 0.27142,-0.29662 1.1542,-0.62071 1.96173,-0.72018 2.17623,-0.26808 2.34223,0.21022 2.78532,8.02522 0.20325,3.58474 0.52362,6.83237 0.71196,7.21695 0.25039,0.5113 0.6844,0.69925 1.6147,0.69925 h 1.27228 l -0.19048,-8.46433 -0.19048,-8.46434 -1.3066,-1.24737 c -0.71862,-0.68605 -1.47597,-1.35842 -1.68298,-1.49415 -0.20702,-0.13573 -2.53239,-0.15131 -5.1675,-0.0347 l -4.79111,0.21217 v 9.74633 9.74634 h 1.95666 1.95667 l 0.0142,-5.79139 z m 25.42242,-7.41468 v -13.20608 l -1.54902,0.10863 -1.54903,0.10863 -0.0942,3.11844 -0.0942,3.11844 -1.53633,0.0212 c -4.35972,0.0603 -6.15073,1.17506 -7.62803,4.74791 -0.63436,1.53423 -0.75423,2.4188 -0.75423,5.56624 0,3.17689 0.11721,4.02599 0.77595,5.62141 0.42677,1.03361 1.23234,2.29898 1.79015,2.81193 0.99157,0.91182 1.09428,0.92854 4.60367,0.74929 1.97422,-0.10084 3.95636,-0.0591 4.40477,0.0928 0.4484,0.15187 0.99872,0.29213 1.22291,0.31167 0.31936,0.0278 0.40764,-2.82434 0.40764,-13.17054 z m 8.15276,6.81086 c 0,-6.11936 0.0316,-6.43525 0.73375,-7.32365 0.58714,-0.74294 1.20617,-1.00476 3.09805,-1.31031 l 2.36431,-0.38185 v -1.31439 c 0,-2.4167 -1.40815,-3.17631 -4.34487,-2.3438 -1.34656,0.38173 -1.79856,0.37554 -2.702,-0.0371 -0.59673,-0.27248 -1.60329,-0.49542 -2.23682,-0.49542 h -1.15185 v 9.80081 9.80081 h 2.11972 2.11971 z m 16.63164,6.02847 c 2.90359,-0.40925 3.26111,-0.79095 3.26111,-3.48164 0,-1.70134 -0.0677,-1.89885 -0.5707,-1.66591 -0.31388,0.14534 -1.61895,0.66502 -2.90015,1.15485 -2.32477,0.88879 -2.33201,0.88923 -3.58722,0.21935 -1.53316,-0.8182 -3.46029,-4.26777 -2.68432,-4.80493 0.24653,-0.17066 2.70512,-0.31275 5.46354,-0.31575 l 5.01531,-0.005 -0.22173,-2.14182 c -0.2671,-2.58005 -0.91858,-5.05327 -1.65438,-6.28052 -1.1231,-1.87324 -5.15543,-2.88196 -7.56258,-1.89184 -1.5119,0.62189 -3.31651,2.82849 -4.03895,4.93866 -0.78627,2.29665 -0.92237,6.89698 -0.274,9.26196 0.22642,0.8259 0.98421,2.21247 1.68398,3.08128 1.8183,2.2575 3.27868,2.60708 8.07009,1.93176 z m 15.24717,-0.57776 c 0.49242,-0.39865 1.23834,-1.27139 1.65761,-1.93943 0.64672,-1.03041 0.74319,-1.55402 0.63615,-3.45278 -0.10792,-1.91434 -0.26752,-2.39264 -1.10309,-3.30579 -0.5373,-0.5872 -2.06749,-1.55265 -3.40043,-2.14547 -2.64908,-1.17816 -3.5802,-1.90848 -3.5802,-2.80811 0,-1.61047 1.52849,-1.82076 4.95847,-0.6822 1.90953,0.63387 2.33493,0.67806 2.57298,0.26731 0.41045,-0.70823 0.36058,-1.5914 -0.16792,-2.97372 -0.54354,-1.42167 -1.9026,-1.97961 -4.75465,-1.95195 -4.09302,0.0397 -6.1961,1.99179 -6.1961,5.75132 0,3.44698 0.76048,4.47966 4.38496,5.95439 3.74822,1.52509 4.5938,2.56873 3.04302,3.7558 -0.98139,0.75122 -2.37063,0.69762 -5.01006,-0.19332 -2.12157,-0.71613 -2.23459,-0.72084 -2.64324,-0.11008 -0.61517,0.91943 -0.52618,2.04971 0.24583,3.12231 0.92374,1.28338 2.26051,1.64926 5.6064,1.53447 2.26518,-0.0777 3.03993,-0.24767 3.75027,-0.82275 z m -90.3159,-2.35289 c 0.0938,-1.20561 -0.0132,-1.36556 -1.7936,-2.68022 -1.04135,-0.76895 -3.32417,-2.23824 -5.07294,-3.26509 -1.74877,-1.02686 -3.17744,-1.97344 -3.17483,-2.10355 0.003,-0.13009 1.42057,-1.03842 3.151,-2.01849 1.73045,-0.98009 4.00293,-2.37989 5.04997,-3.11067 1.85487,-1.29461 1.90371,-1.36951 1.90371,-2.91921 0,-0.87477 -0.14125,-1.68591 -0.31389,-1.80251 -0.35854,-0.24217 -1.84219,0.54866 -8.4911,4.52603 -8.70752,5.20883 -8.68881,5.79079 0.35151,10.93432 4.8434,2.75567 7.41255,3.98811 7.96431,3.82055 0.17936,-0.0545 0.371,-0.67599 0.42586,-1.38116 z m 115.01727,-1.34373 c 5.12177,-2.78043 8.56689,-5.06589 8.84947,-5.87065 0.50369,-1.4345 -0.17564,-2.16911 -4.51842,-4.8861 -2.38208,-1.49031 -5.70918,-3.45974 -7.39356,-4.37651 -3.21475,-1.7497 -3.60626,-1.74247 -3.61776,0.0669 -0.0132,2.06602 0.66544,2.67362 7.28551,6.52331 2.30912,1.34279 3.08961,1.95819 2.77194,2.18559 -0.24321,0.17409 -2.39677,1.46641 -4.78572,2.87181 -4.21566,2.48006 -5.27673,3.48717 -5.27673,5.00846 0,0.77578 0.73159,1.35367 1.45217,1.14707 0.36715,-0.10526 2.72205,-1.30671 5.2331,-2.66986 z"
         id="path597" />
      <path
         style="fill:#666666;stroke-width:0.340916"
         d="m 214.19549,226.73266 c -13.82597,-2.20921 -30.62916,-18.12188 -38.94811,-36.88396 -5.28792,-11.92607 -7.33461,-22.88245 -7.68946,-41.16338 -0.34106,-17.57032 1.29835,-34.17373 4.36259,-44.18296 4.83895,-15.806277 14.11813,-25.666869 27.69554,-29.430887 11.03849,-3.060162 27.38809,-2.875358 37.95667,0.429035 3.56773,1.115491 8.70609,3.87898 11.45243,6.15929 2.84337,2.360879 7.3184,7.530891 9.20971,10.640004 7.42399,12.204268 10.44291,30.983698 9.60858,59.771248 -0.28708,9.90584 -0.92851,15.89831 -2.34958,21.95087 -4.52075,19.25448 -14.34263,35.01229 -28.08904,45.06483 -5.65185,4.13311 -10.57515,6.43144 -15.98569,7.46258 -3.03194,0.57783 -4.51864,0.61555 -7.22364,0.18333 z m 8.87786,-9.45567 c 6.33355,-2.00582 12.7765,-6.49307 18.91365,-13.17257 7.38431,-8.03689 12.2181,-16.61392 15.58618,-27.65597 2.47275,-8.10679 3.11896,-13.72319 3.37455,-29.32918 l 0.19783,-12.07964 -0.78019,0.21253 c -1.84816,0.50346 -9.85121,2.00927 -12.84628,2.41709 -4.7271,0.64368 -14.94173,0.56607 -18.75523,-0.14248 -10.89348,-2.02403 -18.33554,-6.77527 -24.29136,-15.50837 -1.07616,-1.578 -2.36498,-3.06112 -2.86406,-3.29581 -1.79844,-0.84578 -7.5281,0.27585 -12.05493,2.35985 -5.54882,2.55449 -11.26874,7.87614 -13.59719,12.65042 -1.00848,2.06779 -1.11243,2.59416 -1.39785,7.07851 -0.57765,9.07544 0.1467,21.25331 1.72464,28.99519 0.88748,4.3542 2.72644,10.46309 4.3704,14.51805 6.25642,15.43203 20.15616,29.6636 32.52527,33.30179 2.81107,0.82683 6.60336,0.69292 9.89457,-0.34941 z"
         id="path636" />
      <path
         style="fill:#666666;stroke-width:0.340916"
         d="m 191.91725,173.63098 c -7.21174,-1.34854 -9.08782,-4.06382 -11.29914,-16.35341 -0.50529,-2.80822 -0.83134,-5.94678 -0.86929,-8.36769 -0.0588,-3.75416 -0.0355,-3.89437 0.75456,-4.53417 2.24173,-1.8154 11.88388,-2.86834 20.00028,-2.1841 5.53998,0.46705 7.33236,0.89878 11.70322,2.81893 4.28507,1.88247 6.51231,1.83882 11.6692,-0.22873 2.06265,-0.82698 4.77752,-1.72871 6.03304,-2.00384 3.39263,-0.74346 12.04279,-1.02418 16.7947,-0.54502 5.31436,0.53588 7.5931,1.23484 8.69605,2.66733 0.8302,1.07826 0.84613,1.19466 0.66384,4.85055 -0.20921,4.19584 -2.57003,15.27662 -3.8202,17.93054 -2.29359,4.86899 -7.69838,6.93998 -15.75794,6.03808 -4.62284,-0.51731 -6.58907,-1.17466 -8.70103,-2.90892 -3.05403,-2.50784 -4.93427,-5.85499 -6.79835,-12.10227 -1.19772,-4.01404 -1.67239,-4.67705 -3.34838,-4.67705 -1.46181,0 -1.68862,0.36567 -3.26398,5.2621 -1.70547,5.30082 -3.12629,8.11964 -5.07251,10.06355 -2.16821,2.16564 -5.13571,3.75623 -7.93319,4.25225 -2.38545,0.42295 -7.24576,0.4342 -9.45088,0.0219 z m 10.66573,-4.7789 c 3.23158,-1.11057 5.97775,-4.21138 7.35009,-8.2993 0.51959,-1.54773 0.72749,-3.14562 0.82799,-6.36369 l 0.1342,-4.29704 -2.3961,-1.22705 -2.3961,-1.22706 -9.09135,-0.11004 -9.09135,-0.11005 -0.94061,1.17923 c -1.90128,2.38359 -1.98979,2.78642 -1.86276,8.47802 0.11123,4.98399 0.16249,5.32679 1.09417,7.31641 1.15899,2.47502 3.12034,4.17689 5.73605,4.97717 2.25575,0.69016 8.22317,0.51252 10.63577,-0.3166 z m 41.95107,0.11221 c 4.18206,-1.31077 6.2681,-6.04159 6.02272,-13.65862 -0.16038,-4.97855 -0.69545,-6.3805 -2.85114,-7.47034 -1.36471,-0.68994 -2.05715,-0.75378 -8.17625,-0.75378 -7.09051,0 -10.06349,0.38963 -12.80401,1.67804 -0.86398,0.40619 -1.71177,1.02623 -1.88397,1.37787 -0.47791,0.9759 -0.37299,5.98747 0.17335,8.27977 0.68769,2.88539 1.93432,5.40373 3.69087,7.45601 1.86168,2.1751 3.58864,3.20029 5.93211,3.52154 2.10307,0.2883 8.48937,0.0105 9.89632,-0.43049 z"
         id="path675" />
      <path
         style="fill:#666666;stroke-width:0.340916"
         d="m 175.92976,299.95092 c -0.17492,-0.5028 -0.31804,-1.15664 -0.31804,-1.45299 0,-0.89282 1.76976,-2.54152 3.12805,-2.91408 3.30739,-0.90714 3.0686,-0.96409 3.06324,0.73046 -0.003,0.83681 -0.18812,1.9224 -0.41217,2.41244 -0.52325,1.14443 -2.33977,2.13709 -3.91205,2.13781 -1.02155,4.6e-4 -1.2851,-0.15499 -1.54903,-0.91364 z"
         id="path714" />
      <path
         style="fill:#666666;stroke-width:0.340916"
         d="m 209.56354,300.24142 c -1.35774,-1.23055 -1.63466,-6.8218 -0.47402,-9.57102 0.57332,-1.35805 1.72749,-2.07448 3.26524,-2.02684 1.66927,0.0517 1.99522,0.61947 2.10589,3.66811 0.19114,5.26503 0.0311,6.72425 -0.84223,7.67866 -0.97846,1.06932 -3.01307,1.19531 -4.05488,0.25109 z"
         id="path753" />
      <path
         style="fill:#666666;stroke-width:0.340916"
         d="m 237.16508,292.07836 c -0.49324,-0.0937 -0.8968,-0.28446 -0.8968,-0.42384 0,-0.64926 1.14385,-1.91539 2.3257,-2.57431 1.27831,-0.71271 1.32488,-0.71403 2.33941,-0.0665 1.0538,0.6726 2.16348,2.36914 1.80551,2.76035 -0.26507,0.28968 -4.44875,0.51808 -5.57382,0.30428 z"
         id="path792" />
    </g>
  </g>
</svg>
