<?xml version="1.0" encoding="UTF-8" standalone="no"?>
<!-- Created with Inkscape (http://www.inkscape.org/) -->

<svg
   version="1.1"
   id="svg2"
   width="386.13333"
   height="546.1333"
   viewBox="0 0 386.13333 546.1333"
   sodipodi:docname="perfilsvg.svg"
   inkscape:version="1.1 (c68e22c387, 2021-05-23)"
   xmlns:inkscape="http://www.inkscape.org/namespaces/inkscape"
   xmlns:sodipodi="http://sodipodi.sourceforge.net/DTD/sodipodi-0.dtd"
   xmlns="http://www.w3.org/2000/svg"
   xmlns:svg="http://www.w3.org/2000/svg">
  <defs
     id="defs6" />
  <sodipodi:namedview
     id="namedview4"
     pagecolor="#ffffff"
     bordercolor="#666666"
     borderopacity="1.0"
     inkscape:pageshadow="2"
     inkscape:pageopacity="0.0"
     inkscape:pagecheckerboard="0"
     showgrid="false"
     inkscape:zoom="1.5234377"
     inkscape:cx="275.03587"
     inkscape:cy="348.88201"
     inkscape:window-width="1920"
     inkscape:window-height="1017"
     inkscape:window-x="1912"
     inkscape:window-y="760"
     inkscape:window-maximized="1"
     inkscape:current-layer="g12" />
  <g
     inkscape:groupmode="layer"
     inkscape:label="Image"
     id="g8">
    <g
       id="g12"
       transform="translate(-28.882048,-64.328201)">
      <path
         style="fill:#333333;fill-opacity:1;stroke-width:1.06667"
         d="m 195.79284,589.8245 c -43.139,-1.5279 -85.90537,-10.63093 -114.713028,-24.41722 -20.993893,-10.04691 -39.824509,-26.034 -46.402236,-39.39526 -3.912036,-7.94647 -3.89494,-8.40465 1.246812,-33.41583 6.437086,-31.31213 15.040058,-55.23613 24.761683,-68.85977 3.868205,-5.42081 7.511259,-8.6599 17.738161,-15.77128 28.082548,-19.5275 78.813938,-51.08278 82.125568,-51.0827 0.90366,3e-5 6.02365,3.02159 11.37773,6.71461 8.7378,6.02693 14.38932,8.98794 28.85547,15.11833 5.07109,2.14899 5.78926,3.48968 14.19465,26.49858 2.74555,7.5157 5.43216,13.69398 5.97023,13.72953 0.53805,0.0355 2.11866,-2.99366 3.51246,-6.73157 7.80569,-20.93342 11.24456,-29.38055 12.59566,-30.9395 0.83099,-0.95883 4.48672,-2.80811 8.12386,-4.10951 8.47321,-3.03178 17.47481,-8.00968 26.8568,-14.85184 4.09411,-2.98577 8.24161,-5.42867 9.21668,-5.42867 5.60833,0 89.31607,54.08637 97.09052,62.73343 9.19978,10.23235 17.98766,30.39426 24.26741,55.67631 3.57788,14.40446 7.58156,36.55619 7.58156,41.94761 0,4.96564 -4.95332,13.85273 -12.01839,21.56299 -23.94868,26.13578 -65.98171,42.65923 -124.51494,48.94763 -14.48289,1.55594 -59.00989,2.742 -77.86666,2.07413 z m 117.68905,-73.74211 c 2.00763,-4.59834 17.77761,-50.46838 17.77761,-51.70961 0,-1.20619 -5.0941,-1.00709 -5.85803,0.22898 -1.73543,2.80798 -18.60719,53.66124 -18.08415,54.50753 1.42601,2.30732 4.4932,0.80127 6.16457,-3.0269 z m -165.68905,-5.65427 c 0.88,-0.0458 2.92,0.24369 4.53333,0.64322 l 2.93333,0.72641 -0.006,-12.65767 c -0.007,-16.21677 -1.0952,-20.33526 -5.90012,-22.34289 -4.24161,-1.77226 -12.54217,-1.99218 -15.49738,-0.4106 -1.22095,0.65367 -2.06276,2.22706 -2.06276,3.85624 0,2.71685 0.0758,2.74257 5.92553,2.01169 4.60297,-0.5751 6.51517,-0.35399 8.56732,0.99063 1.45298,0.95203 2.39819,2.12513 2.10045,2.60689 -0.29774,0.48175 -3.31304,1.43191 -6.70066,2.11146 -7.86695,1.57811 -10.83779,3.90209 -12.08517,9.45378 -1.13047,5.03136 -0.15338,8.58588 3.31304,12.05229 1.93356,1.93357 3.09295,2.18063 7.77593,1.65706 3.02696,-0.33842 6.22356,-0.65275 7.10356,-0.69851 z m -11.02222,-5.99018 c -0.39112,-0.3911 -0.71112,-2.06004 -0.71112,-3.70873 0,-3.49939 2.83863,-5.66345 8.8,-6.70876 l 4,-0.7014 v 4.25452 c 0,3.18731 -0.59466,4.67104 -2.37068,5.91501 -2.39287,1.67603 -8.40428,2.26328 -9.7182,0.94936 z m 33.42222,-6.09161 c 0,-14.10889 0.24553,-14.8151 5.61981,-16.16396 4.28017,-1.07426 6.11232,0.97067 6.11991,6.83063 0.003,2.71483 0.31466,8.89606 0.69143,13.73606 0.67035,8.61128 0.74504,8.8 3.48267,8.8 h 2.79763 l -0.3576,-15.2 -0.3576,-15.2 -3.25997,-3.03312 c -2.85795,-2.65907 -3.80316,-2.94866 -7.66479,-2.34833 -2.42265,0.37662 -6.68483,0.64639 -9.47149,0.59948 l -5.06667,-0.0853 v 17.63364 17.63363 h 3.73333 3.73334 z m 44.26666,12.04208 c 0.58667,-0.0956 2.38667,0.17848 4,0.60905 l 2.93333,0.78287 V 487.6647 463.54906 h -3.19999 c -3.18418,0 -3.20002,0.0303 -3.20316,6.13333 l -0.003,6.13334 h -5.75214 c -4.24256,0 -6.38076,0.55986 -8.14749,2.13333 -7.67265,6.83333 -8.48018,23.36632 -1.50871,30.88866 2.68021,2.892 5.10155,3.14431 14.88131,1.55069 z m -11.37285,-7.63935 c -1.81357,-3.31102 -1.75189,-13.72524 0.10187,-17.19536 1.69644,-3.1757 5.0875,-4.44981 9.13768,-3.43329 2.60061,0.65271 2.66667,0.9103 2.66667,10.39805 0,10.89973 -0.92983,12.53502 -7.16248,12.59668 -2.47693,0.0245 -3.79416,-0.63251 -4.74371,-2.36608 z m 34.30618,-3.40619 c 0,-11.40433 0.15574,-12.31526 2.37068,-13.86666 1.30386,-0.91326 4.21428,-1.66048 6.46758,-1.66048 3.97961,0 4.08733,-0.0993 3.76266,-3.46667 -0.29279,-3.03662 -0.75818,-3.50768 -3.75162,-3.79724 -1.87957,-0.18181 -4.4511,0.22265 -5.71452,0.89882 -1.66127,0.88908 -2.61976,0.90677 -3.46263,0.0639 -0.64101,-0.641 -2.50948,-1.16547 -4.15215,-1.16547 h -2.98666 v 17.6 17.6 h 3.73333 3.73333 z m 39.50372,10.04943 c 0.95448,-1.50941 1.45822,-7.44324 0.63188,-7.44324 -0.21876,0 -2.5588,0.95594 -5.20008,2.1243 -6.62437,2.93027 -10.92153,1.46243 -13.6701,-4.66948 l -1.96694,-4.38815 11.24576,-0.30373 11.24576,-0.30371 -0.75114,-5.56295 c -1.19807,-8.87288 -4.04258,-12.31528 -10.94087,-13.24053 -9.62062,-1.2904 -16.26307,6.21371 -16.43828,18.57067 -0.10027,7.06816 1.8202,11.70182 6.31898,15.24669 2.55805,2.01565 3.99985,2.2757 10.74137,1.93743 5.37417,-0.26967 8.09559,-0.87919 8.78366,-1.9673 z M 257.6595,488.03391 c 0,-2.12005 5.24584,-6.35152 7.8741,-6.35152 2.75114,0 7.50698,4.81259 6.44842,6.52538 -0.83659,1.35361 -14.32252,1.18991 -14.32252,-0.17386 z m 45.94872,20.3972 c 2.44503,-2.44503 3.11795,-4.07391 3.11795,-7.54737 0,-5.36026 -2.69322,-8.17909 -10.22047,-10.69717 -6.2691,-2.09718 -8.11976,-4.48777 -5.50126,-7.10626 1.87342,-1.87341 3.08951,-1.73652 12.78839,1.43961 1.49827,0.49064 1.86667,-0.0191 1.86667,-2.58251 0,-1.75659 -0.70117,-3.77572 -1.55816,-4.48696 -2.37983,-1.97508 -9.4768,-2.56398 -13.78084,-1.14352 -4.92425,1.62515 -7.061,4.71992 -7.061,10.22687 0,5.429 2.56384,8.02137 10.47607,10.59266 6.03156,1.9601 7.6547,3.85518 5.51266,6.43618 -1.68118,2.02569 -7.19356,2.03265 -12.02204,0.0151 -3.35701,-1.40264 -3.8288,-1.39329 -4.39694,0.0873 -1.00382,2.6159 -0.7807,3.47304 1.49692,5.75066 1.70084,1.70085 3.55555,2.13334 9.14871,2.13334 6.33163,0 7.31929,-0.3039 10.13334,-3.11795 z m -183.66623,-4.51443 c -0.50389,-0.97114 -5.57838,-4.27904 -11.27664,-7.35089 l -10.360488,-5.58519 10.278348,-5.15987 c 5.6531,-2.83792 10.72513,-5.9582 11.27118,-6.93393 1.00916,-1.80329 0.51264,-5.75202 -0.7193,-5.72039 -0.37157,0.01 -7.15559,3.5213 -15.07559,7.80391 -19.329398,10.45207 -19.332218,10.34308 0.53333,20.61658 12.82381,6.63186 15.02742,7.4666 15.59933,5.90915 0.3663,-0.99752 0.25372,-2.60823 -0.25017,-3.57937 z m 235.53986,-2.59798 c 7.28882,-3.8667 13.53698,-7.77194 13.88479,-8.67832 0.3478,-0.90637 0.14504,-2.42271 -0.4506,-3.36963 -0.99366,-1.57971 -27.46611,-16.04749 -29.45746,-16.09917 -0.47717,-0.0124 -0.71717,1.5352 -0.53333,3.43908 0.30988,3.20914 1.09172,3.85096 10.71995,8.8 5.71214,2.93612 10.39104,5.5784 10.39755,5.87173 0.006,0.29334 -4.66704,2.93334 -10.38569,5.86667 -8.968,4.60005 -10.44396,5.73664 -10.73507,8.26667 -0.50218,4.36433 1.58198,3.84869 16.55986,-4.09703 z M 213.1779,368.50684 c -28.32268,-4.72364 -61.99124,-33.87621 -78.10752,-67.63089 -9.056,-18.96731 -13.67139,-38.19506 -15.10484,-62.92687 -1.88056,-32.44607 1.04734,-69.89061 7.1047,-90.8609 7.96015,-27.55767 24.37497,-46.84926 47.16065,-55.42576 15.71201,-5.91399 37.01448,-8.29002 60.00326,-6.69263 26.92121,1.87064 43.80467,8.49011 58.16084,22.80304 18.00881,17.95458 25.96604,39.72278 29.37858,80.36955 1.81414,21.60822 0.69253,59.49676 -2.19328,74.08987 -5.93385,30.00655 -19.26656,56.21072 -38.40925,75.48963 -22.4004,22.55981 -47.94993,34.12775 -67.99314,30.78496 z m 17.0569,-17.4774 c 23.60883,-6.14931 50.17926,-30.34052 63.28009,-57.6137 10.86971,-22.62846 14.26731,-39.73298 14.27366,-71.85768 l 0.004,-21.72434 -2.93333,0.64134 c -38.84494,8.49316 -69.93761,6.44423 -90.74979,-5.98021 -6.96747,-4.15944 -16.53155,-13.2854 -21.25265,-20.2791 -3.0742,-4.55403 -3.8272,-5.06479 -7.44224,-5.04815 -17.98354,0.0828 -38.92234,11.98226 -47.82975,27.18148 -3.07493,5.24692 -3.13156,5.62933 -3.49534,23.60219 -0.56358,27.84419 3.56321,50.32499 13.06601,71.17751 10.33047,22.66873 30.64309,44.2803 51.35424,54.63825 13.38952,6.6963 21.22791,7.99651 31.72482,5.26241 z m -65.84084,-81.11596 c -7.01277,-1.92427 -10.24646,-4.43712 -13.15107,-10.21951 -2.99878,-5.96984 -6.74277,-23.30381 -7.38905,-34.20994 -0.48521,-8.18793 -0.48184,-8.20045 2.6509,-9.82045 4.85751,-2.51191 15.44163,-3.83271 30.62143,-3.82125 15.45333,0.0116 24.79245,1.60578 33.6,5.73527 7.63292,3.57876 11.93413,3.48076 21.87145,-0.49834 10.55533,-4.22656 17.18067,-5.24978 34.04118,-5.25734 15.7925,-0.007 26.27993,1.50323 29.7091,4.27845 2.01664,1.63207 2.3725,2.95294 2.34029,8.68672 -0.0209,3.7191 -0.91177,10.12199 -1.97976,14.22865 -1.06798,4.10667 -2.62158,10.34667 -3.45243,13.86667 -2.48167,10.51394 -7.58976,15.43849 -18.32896,17.67041 -7.4029,1.53854 -21.32457,0.734 -27.99703,-1.61795 -9.00567,-3.17438 -15.77735,-12.0055 -19.7052,-25.69802 -2.24692,-7.83279 -3.3091,-9.21647 -6.76169,-8.80837 -2.39545,0.28315 -3.09347,1.45422 -5.97465,10.02368 -1.79427,5.3367 -4.5986,11.72235 -6.23184,14.19035 -3.63591,5.49423 -10.90747,10.26268 -17.95458,11.77402 -7.0659,1.51536 -19.42691,1.27535 -25.90809,-0.50305 z m 25.75333,-8.50384 c 10.08811,-2.99584 16.84006,-13.8968 16.84367,-27.1939 l 0.002,-6.93333 -5.33333,-2.65594 c -5.02459,-2.50219 -6.34147,-2.65656 -22.74827,-2.66666 l -17.4152,-0.0107 -3.11839,3.48349 c -2.92995,3.27299 -3.1184,4.03245 -3.1184,12.5676 0,13.26212 2.88631,19.1918 11.2,23.00946 5.30947,2.43812 16.20516,2.62211 23.68779,0.40001 z m 88.12757,-1.47979 c 5.91937,-3.65836 8.67419,-10.45103 8.69819,-21.44744 0.0322,-14.7437 -2.8626,-17.07233 -21.20605,-17.05861 -12.96531,0.01 -23.49823,1.57571 -27.84083,4.1393 -3.07931,1.81784 -3.1938,2.15729 -3.03561,9.00049 0.29266,12.65984 7.07437,23.587 16.90227,27.2341 1.80728,0.67068 7.44683,1.02921 12.95771,0.82379 7.73879,-0.28848 10.53705,-0.84539 13.52432,-2.69163 z"
         id="path14" />
      <path
         style="fill:#666666;stroke-width:0.65641"
         d="M 152.28716,524.37072 C 119.68105,521.77895 86.912162,514.78868 63.177275,505.36176 44.449055,497.92337 27.810217,487.16965 16.330742,475.08475 7.6431224,465.93895 3.6091006,458.49181 3.6148668,451.61021 c 0.00728,-8.68397 7.9127002,-43.40764 13.8929342,-61.02313 6.036964,-17.78258 12.827063,-30.0714 20.729636,-37.5168 8.587754,-8.09093 60.515321,-42.12359 85.934613,-56.32044 8.52786,-4.76286 6.30401,-5.1482 19.43021,3.3668 8.16625,5.29747 13.11311,7.90632 26.88974,14.181 5.65985,2.57782 6.90046,4.49123 12.30668,18.98076 5.22876,14.0139 8.54767,21.83951 9.26234,21.83951 0.88084,0 2.3631,-3.25818 7.13683,-15.68766 9.2053,-23.96807 8.26061,-22.54163 17.41751,-26.2996 8.94129,-3.66948 15.42065,-7.16907 24.28718,-13.1178 12.12252,-8.13326 10.66337,-7.68527 16.10555,-4.94464 17.84752,8.98787 79.61031,49.31964 90.37222,59.01403 8.29791,7.47482 16.77694,24.8332 23.56019,48.23274 3.26598,11.26634 8.29756,35.2618 9.48355,45.2267 0.71165,5.9795 0.67017,6.59724 -0.68331,10.17555 -5.68937,15.04153 -25.38284,32.47087 -49.46546,43.77849 -22.11277,10.38271 -54.76661,18.55418 -86.4189,21.62594 -19.21283,1.86455 -74.36196,2.61681 -91.56922,1.24906 z m 130.88241,-69.73063 c 1.58157,-1.68351 3.25194,-6.14631 13.2641,-35.43835 3.56284,-10.42363 6.31766,-19.21132 6.12182,-19.5282 -0.19584,-0.31688 -1.51337,-0.57615 -2.92784,-0.57615 -1.94439,0 -2.80645,0.3603 -3.53374,1.47693 -1.01812,1.56313 -13.38102,37.89946 -16.44249,48.32681 -1.48253,5.04946 -1.6463,6.25387 -0.91352,6.71815 1.51366,0.95904 2.89818,0.65314 4.43167,-0.97919 z M 126.75171,435.03585 c -0.24437,-6.94974 -0.73991,-14.14272 -1.10121,-15.98441 -1.16561,-5.94164 -5.05328,-8.12811 -14.46455,-8.135 -4.09863,-0.003 -5.3164,0.24627 -6.76334,1.38444 -1.43402,1.128 -1.72735,1.83524 -1.56545,3.77436 l 0.19924,2.38625 6.2359,-0.22852 c 5.64781,-0.20697 6.41054,-0.0907 8.08784,1.23319 1.01857,0.80394 1.60934,1.69707 1.31282,1.98475 -0.29652,0.28767 -3.02705,1.13841 -6.06783,1.89052 -3.04079,0.75212 -6.43771,1.88857 -7.54872,2.52545 -4.84273,2.77611 -6.60946,11.99096 -3.24852,16.94358 2.87892,4.24232 3.05004,4.30249 11.40287,4.00973 4.15179,-0.14551 8.43487,-0.0484 9.51795,0.21583 4.80087,1.17119 4.49805,2.07897 4.003,-12.00017 z m 14.73327,1.96923 c 0.0308,-11.48307 0.55921,-15.80244 2.12482,-17.36805 0.54633,-0.54633 2.32323,-1.14324 3.94866,-1.32645 4.38042,-0.49374 4.71455,0.3872 5.60642,14.78098 0.4091,6.60244 1.05398,12.58398 1.43307,13.29231 0.50399,0.94171 1.37759,1.28788 3.25015,1.28788 h 2.5609 l -0.38341,-15.58974 -0.38341,-15.58975 -2.62998,-2.29743 c -1.44648,-1.26359 -2.9709,-2.50197 -3.38759,-2.75196 -0.41669,-0.24998 -5.09731,-0.27868 -10.40138,-0.0638 l -9.64376,0.39077 v 17.95095 17.95096 h 3.93846 3.93847 l 0.0286,-10.66667 z m 51.17141,-13.65647 v -24.32315 l -3.11795,0.20007 -3.11795,0.20007 -0.18965,5.74359 -0.18967,5.74359 -3.09238,0.0391 c -8.77547,0.11104 -12.38048,2.16425 -15.35406,8.74478 -1.27688,2.82577 -1.51815,4.45498 -1.51815,10.25199 0,5.85124 0.23592,7.41512 1.56187,10.35361 0.85903,1.90371 2.48051,4.23428 3.60329,5.17904 1.99587,1.67941 2.20262,1.7102 9.26649,1.38005 3.9738,-0.18572 7.96355,-0.10881 8.86611,0.17092 0.90256,0.27972 2.01026,0.53804 2.46154,0.57402 0.64282,0.0513 0.82051,-5.20191 0.82051,-24.25771 z m 16.41025,12.54436 c 0,-11.27074 0.0637,-11.85254 1.47693,-13.48882 1.18181,-1.36835 2.42782,-1.85057 6.23589,-2.41334 l 4.75898,-0.7033 v -2.42088 c 0,-4.45111 -2.83438,-5.85017 -8.74553,-4.31683 -2.71043,0.70307 -3.62022,0.69167 -5.43873,-0.0682 -1.20111,-0.50186 -3.22717,-0.91246 -4.50235,-0.91246 h -2.31852 v 18.05128 18.05128 h 4.26667 4.26666 z m 33.47692,11.10333 c 5.84447,-0.75376 6.56411,-1.45678 6.56411,-6.41255 0,-3.13354 -0.1362,-3.49732 -1.14872,-3.0683 -0.6318,0.2677 -3.2587,1.22485 -5.83757,2.12702 -4.67939,1.63699 -4.69396,1.63781 -7.22051,0.40402 -3.08601,-1.50698 -6.96503,-7.86045 -5.40312,-8.8498 0.49622,-0.31433 5.44499,-0.57603 10.99727,-0.58156 l 10.09504,-0.0101 -0.44631,-3.94484 c -0.53763,-4.75196 -1.84896,-9.30719 -3.33001,-11.56756 -2.26063,-3.45016 -10.3771,-5.30804 -15.22231,-3.48441 -3.04323,1.1454 -6.67563,5.20956 -8.12978,9.09611 -1.58264,4.23 -1.85658,12.70296 -0.55153,17.05883 0.45574,1.52115 1.98106,4.07495 3.3896,5.67513 3.65994,4.15791 6.59947,4.80177 16.24384,3.55796 z m 30.69021,-1.06413 c 0.99116,-0.73424 2.49259,-2.34167 3.33652,-3.57206 1.30174,-1.89783 1.49592,-2.86222 1.28046,-6.35939 -0.21723,-3.52587 -0.53848,-4.40681 -2.22034,-6.08867 -1.08151,-1.08151 -4.16155,-2.8597 -6.84454,-3.95155 -5.33221,-2.16996 -7.20641,-3.51507 -7.20641,-5.17202 0,-2.96619 3.07663,-3.35351 9.98064,-1.25648 3.84359,1.16746 4.69986,1.24885 5.17902,0.49231 0.82617,-1.30441 0.72578,-2.93105 -0.338,-5.47703 -1.09406,-2.61846 -3.82964,-3.64609 -9.57038,-3.59514 -8.23862,0.0731 -12.47179,3.66853 -12.47179,10.59287 0,6.34872 1.53074,8.25071 8.82625,10.9669 7.54459,2.80893 9.2466,4.73112 6.12512,6.91749 -1.97538,1.38362 -4.7717,1.28489 -10.08447,-0.35607 -4.27038,-1.31898 -4.49788,-1.32765 -5.32043,-0.20274 -1.23825,1.69341 -1.05912,3.7752 0.49482,5.75072 1.85933,2.36375 4.55005,3.03763 11.28482,2.82622 4.55946,-0.14312 6.1189,-0.45617 7.54871,-1.51536 z M 91.441799,441.59858 c 0.188803,-2.2205 -0.02665,-2.5151 -3.610256,-4.93647 -2.096069,-1.41627 -6.691039,-4.12244 -10.211038,-6.01371 -3.52,-1.89127 -6.3957,-3.63471 -6.390442,-3.87433 0.0053,-0.23961 2.859375,-1.91258 6.342484,-3.7177 3.483116,-1.80513 8.057278,-4.38331 10.164801,-5.72928 3.733563,-2.38444 3.831873,-2.52238 3.831873,-5.37664 0,-1.61118 -0.284311,-3.10513 -0.631801,-3.3199 -0.72169,-0.44603 -3.708048,1.01054 -17.091274,8.33612 -17.526911,9.59371 -17.489254,10.66558 0.707518,20.139 9.749018,5.07544 14.920342,7.34538 16.030942,7.03675 0.361026,-0.10032 0.746765,-1.24505 0.857193,-2.54384 z m 231.512011,-2.4749 c 10.30934,-5.12105 17.24383,-9.33044 17.81262,-10.81267 1.01385,-2.64207 -0.35354,-3.99508 -9.09488,-8.99929 -4.79475,-2.74487 -11.4917,-6.3722 -14.88209,-8.06071 -6.47081,-3.22264 -7.25884,-3.20931 -7.28201,0.12319 -0.0265,3.80522 1.33945,4.9243 14.66461,12.01472 4.64791,2.47319 6.21892,3.60664 5.57948,4.02547 -0.48952,0.32064 -4.82432,2.70084 -9.6329,5.28933 -8.48547,4.56781 -10.62124,6.42274 -10.62124,9.22466 0,1.42885 1.47257,2.49321 2.92298,2.1127 0.73903,-0.19387 5.47907,-2.40671 10.53343,-4.9174 z"
         id="path597"
         transform="translate(28.882048,64.328201)" />
      <path
         style="fill:#666666;stroke-width:0.65641"
         d="M 184.98623,303.91292 C 157.1567,299.84395 123.33447,270.53575 106.58971,235.97946 95.945937,214.01383 91.826267,193.83421 91.112002,160.16409 90.425503,127.80281 93.725377,97.222377 99.893219,78.787224 109.63329,49.674968 128.31085,31.513576 155.64008,24.580948 c 22.21877,-5.636255 55.12799,-5.29588 76.40092,0.790203 7.18128,2.054529 17.52401,7.144367 23.05197,11.344277 5.72327,4.348305 14.73082,13.870519 18.53773,19.596933 14.94335,22.478016 21.01995,57.066259 19.3406,110.087619 -0.57787,18.24473 -1.86896,29.28177 -4.72936,40.42947 -9.09956,35.4632 -28.8695,64.48618 -56.5389,83.00111 -11.3763,7.61243 -21.28614,11.84554 -32.17672,13.7447 -6.10284,1.06425 -9.09532,1.13374 -14.54009,0.33766 z m 17.86978,-17.4156 c 12.74845,-3.69435 25.71712,-11.95904 38.07024,-24.26145 14.8635,-14.80248 24.59317,-30.59978 31.37259,-50.93721 4.97727,-14.93122 6.27799,-25.27558 6.79245,-54.01894 l 0.3982,-22.24846 -1.5704,0.39143 c -3.72007,0.92727 -19.82896,3.7007 -25.85758,4.45184 -9.51493,1.18552 -30.07541,1.04259 -37.75139,-0.26244 -21.9269,-3.72788 -36.9066,-12.47879 -48.89475,-28.56356 -2.16616,-2.90638 -4.76036,-5.63801 -5.76491,-6.07028 -3.61998,-1.55776 -15.15292,0.50808 -24.26472,4.34642 -11.16891,4.7049 -22.68225,14.5064 -27.36905,23.29974 -2.02991,3.80849 -2.23914,4.77797 -2.81366,13.03732 -1.16271,16.71529 0.29528,39.14468 3.47144,53.40379 1.78635,8.01965 5.48791,19.27109 8.79694,26.73958 12.59322,28.42296 40.57123,54.63489 65.46836,61.33577 5.65824,1.52287 13.29153,1.27622 19.91624,-0.64355 z"
         id="path636"
         transform="translate(28.882048,64.328201)" />
      <path
         style="fill:#666666;stroke-width:0.65641"
         d="m 140.14358,206.10939 c -14.51611,-2.48375 -18.29238,-7.4848 -22.74342,-30.11995 -1.01708,-5.17223 -1.67338,-10.95288 -1.74975,-15.41174 -0.11844,-6.91449 -0.0715,-7.17271 1.51881,-8.35112 4.51227,-3.34362 23.92041,-5.28296 40.25749,-4.0227 11.15111,0.86022 14.7589,1.65538 23.55676,5.19195 8.6252,3.46716 13.10828,3.38675 23.4883,-0.42128 4.1518,-1.52314 9.61641,-3.18396 12.14359,-3.69071 6.82883,-1.36932 24.24027,-1.88634 33.80513,-1.00382 10.69699,0.98699 15.28375,2.27434 17.5038,4.91272 1.67108,1.98597 1.70315,2.20035 1.33622,8.93384 -0.42112,7.72795 -5.17308,28.13671 -7.68947,33.02474 -4.61666,8.96778 -15.49565,12.78216 -31.71831,11.12103 -9.30506,-0.95279 -13.26278,-2.16351 -17.51383,-5.35769 -6.14729,-4.61898 -9.93192,-10.78382 -13.68402,-22.29015 -2.41083,-7.39312 -3.36626,-8.61427 -6.73978,-8.61427 -2.94239,0 -3.39893,0.67349 -6.56989,9.69182 -3.43284,9.76313 -6.29273,14.95488 -10.21017,18.5352 -4.36428,3.98871 -10.3374,6.9183 -15.9683,7.83187 -4.80153,0.779 -14.58459,0.79971 -19.02316,0.0403 z m 21.46846,-8.80183 c 6.50469,-2.04547 12.03229,-7.75659 14.79461,-15.28578 1.04584,-2.85065 1.46432,-5.79366 1.66661,-11.72076 l 0.27012,-7.91435 -4.82298,-2.26001 -4.82298,-2.26001 -18.29948,-0.20268 -18.29947,-0.20268 -1.89331,2.17191 c -3.82699,4.39014 -4.00514,5.13208 -3.74946,15.61497 0.22389,9.17958 0.32708,9.81096 2.20241,13.47546 2.33285,4.55853 6.28075,7.69306 11.54579,9.16705 4.54046,1.27113 16.55196,0.94396 21.40814,-0.58312 z m 84.44104,0.20667 c 8.41784,-2.4142 12.61671,-11.12751 12.12281,-25.15668 -0.32282,-9.16956 -1.39984,-11.7517 -5.7389,-13.75898 -2.74696,-1.27075 -4.14072,-1.38833 -16.45753,-1.38833 -14.2721,0 -20.25626,0.71762 -25.7725,3.09064 -1.73907,0.74813 -3.44554,1.89014 -3.79215,2.5378 -0.96196,1.79743 -0.75076,11.02781 0.34893,15.2498 1.38421,5.31435 3.89349,9.95268 7.42915,13.73259 3.74727,4.00613 7.22337,5.89435 11.94042,6.48603 4.23316,0.53099 17.08779,0.0193 19.91977,-0.79287 z"
         id="path675"
         transform="translate(28.882048,64.328201)" />
      <path
         style="fill:#666666;stroke-width:0.65641"
         d="m 107.96323,438.76748 c -0.35209,-0.92607 -0.64016,-2.13033 -0.64016,-2.67614 0,-1.64443 3.56224,-4.68103 6.29627,-5.3672 6.65727,-1.6708 6.17662,-1.77568 6.16584,1.34536 -0.005,1.54124 -0.37866,3.54071 -0.82964,4.44327 -1.05322,2.10783 -4.70959,3.93614 -7.87436,3.93745 -2.05622,8.5e-4 -2.5867,-0.28546 -3.11795,-1.68274 z"
         id="path714"
         transform="translate(28.882048,64.328201)" />
      <path
         style="fill:#666666;stroke-width:0.65641"
         d="m 175.66285,439.30252 c -2.73293,-2.26646 -3.29032,-12.56449 -0.95414,-17.62805 1.15401,-2.50128 3.47718,-3.82081 6.57242,-3.73307 3.35999,0.0952 4.01608,1.14094 4.23884,6.75599 0.38472,9.6972 0.0626,12.38482 -1.69528,14.14266 -1.9695,1.96949 -6.06484,2.20155 -8.16184,0.46247 z"
         id="path753"
         transform="translate(28.882048,64.328201)" />
      <path
         style="fill:#666666;stroke-width:0.65641"
         d="m 231.22049,424.26766 c -0.99282,-0.17263 -1.80513,-0.52392 -1.80513,-0.78063 0,-1.19583 2.3024,-3.5278 4.68128,-4.74141 2.57304,-1.31267 2.66677,-1.3151 4.70887,-0.12245 2.12114,1.23881 4.35474,4.36352 3.6342,5.08406 -0.53354,0.53354 -8.95464,0.9542 -11.21922,0.56043 z"
         id="path792"
         transform="translate(28.882048,64.328201)" />
    </g>
  </g>
</svg>
